<?xml version="1.0" encoding="utf-8"?>
<!-- Generator: Adobe Illustrator 25.2.3, SVG Export Plug-In . SVG Version: 6.00 Build 0)  -->
<svg version="1.1" id="blue_x5F_pattern" xmlns="http://www.w3.org/2000/svg" xmlns:xlink="http://www.w3.org/1999/xlink" x="0px"
	 y="0px" viewBox="0 0 100 100" style="enable-background:new 0 0 100 100;" xml:space="preserve">
<style type="text/css">
	.st0{fill:none;}
	.st1{fill:none;stroke:#FFFFFF;stroke-width:2;stroke-linecap:square;stroke-miterlimit:10;}
	.st2{fill:#FFFFFF;}
	.st3{fill:#0071BC;}
	.st4{fill:url(#SVGID_1_);}
</style>
<pattern  x="-150.1" y="-149.6" width="100" height="100" patternUnits="userSpaceOnUse" id="New_Pattern_10" viewBox="101.4 -201.4 100 100" style="overflow:visible;">
	<g>
		<rect x="101.4" y="-201.4" class="st0" width="100" height="100"/>
		<g>
			<g>
				<line class="st1" x1="201.4" y1="-101.4" x2="301.4" y2="-1.4"/>
				<line class="st1" x1="301.4" y1="-101.4" x2="201.4" y2="-1.4"/>
				<line class="st1" x1="271.4" y1="-101.4" x2="201.4" y2="-31.4"/>
			</g>
		</g>
		<g>
			<g>
				<line class="st1" x1="101.4" y1="-101.4" x2="201.4" y2="-1.4"/>
				<line class="st1" x1="201.4" y1="-101.4" x2="101.4" y2="-1.4"/>
				<line class="st1" x1="131.4" y1="-101.4" x2="201.4" y2="-31.4"/>
				<line class="st1" x1="171.4" y1="-101.4" x2="101.4" y2="-31.4"/>
			</g>
			
				<rect x="147.8" y="-105" transform="matrix(0.7071 -0.7071 0.7071 0.7071 116.057 77.3621)" class="st2" width="7.2" height="7.2"/>
		</g>
		<g>
			<g>
				<line class="st1" x1="1.4" y1="-101.4" x2="101.4" y2="-1.4"/>
				<line class="st1" x1="101.4" y1="-101.4" x2="1.4" y2="-1.4"/>
				<line class="st1" x1="31.4" y1="-101.4" x2="101.4" y2="-31.4"/>
			</g>
		</g>
		<g>
			<g>
				<line class="st1" x1="201.4" y1="-201.4" x2="301.4" y2="-101.4"/>
				<line class="st1" x1="301.4" y1="-201.4" x2="201.4" y2="-101.4"/>
				<line class="st1" x1="201.4" y1="-171.4" x2="271.4" y2="-101.4"/>
				<line class="st1" x1="271.4" y1="-201.4" x2="201.4" y2="-131.4"/>
			</g>
			
				<rect x="197.8" y="-155" transform="matrix(0.7071 -0.7071 0.7071 0.7071 166.0591 98.073)" class="st2" width="7.2" height="7.2"/>
		</g>
		<g>
			<g>
				<rect x="101.4" y="-201.4" class="st3" width="100" height="100"/>
				<line class="st1" x1="101.4" y1="-201.4" x2="201.4" y2="-101.4"/>
				<line class="st1" x1="201.4" y1="-201.4" x2="101.4" y2="-101.4"/>
				<line class="st1" x1="131.4" y1="-201.4" x2="201.4" y2="-131.4"/>
				<line class="st1" x1="101.4" y1="-171.4" x2="171.4" y2="-101.4"/>
				<line class="st1" x1="201.4" y1="-171.4" x2="131.4" y2="-101.4"/>
				<line class="st1" x1="171.4" y1="-201.4" x2="101.4" y2="-131.4"/>
			</g>
			
				<rect x="147.8" y="-205" transform="matrix(0.7071 -0.7071 0.7071 0.7071 186.767 48.0734)" class="st2" width="7.2" height="7.2"/>
			
				<rect x="147.8" y="-105" transform="matrix(0.7071 -0.7071 0.7071 0.7071 116.057 77.3621)" class="st2" width="7.2" height="7.2"/>
			
				<rect x="97.8" y="-155" transform="matrix(0.7071 -0.7071 0.7071 0.7071 136.7698 27.3623)" class="st2" width="7.2" height="7.2"/>
			
				<rect x="197.8" y="-155" transform="matrix(0.7071 -0.7071 0.7071 0.7071 166.0591 98.073)" class="st2" width="7.2" height="7.2"/>
		</g>
		<g>
			<g>
				<line class="st1" x1="1.4" y1="-201.4" x2="101.4" y2="-101.4"/>
				<line class="st1" x1="101.4" y1="-201.4" x2="1.4" y2="-101.4"/>
				<line class="st1" x1="31.4" y1="-201.4" x2="101.4" y2="-131.4"/>
				<line class="st1" x1="101.4" y1="-171.4" x2="31.4" y2="-101.4"/>
			</g>
			
				<rect x="97.8" y="-155" transform="matrix(0.7071 -0.7071 0.7071 0.7071 136.7698 27.3623)" class="st2" width="7.2" height="7.2"/>
		</g>
		<g>
			<g>
				<line class="st1" x1="201.4" y1="-301.4" x2="301.4" y2="-201.4"/>
				<line class="st1" x1="301.4" y1="-301.4" x2="201.4" y2="-201.4"/>
				<line class="st1" x1="201.4" y1="-271.4" x2="271.4" y2="-201.4"/>
			</g>
		</g>
		<g>
			<g>
				<line class="st1" x1="101.4" y1="-301.4" x2="201.4" y2="-201.4"/>
				<line class="st1" x1="201.4" y1="-301.4" x2="101.4" y2="-201.4"/>
				<line class="st1" x1="101.4" y1="-271.4" x2="171.4" y2="-201.4"/>
				<line class="st1" x1="201.4" y1="-271.4" x2="131.4" y2="-201.4"/>
			</g>
			
				<rect x="147.8" y="-205" transform="matrix(0.7071 -0.7071 0.7071 0.7071 186.767 48.0734)" class="st2" width="7.2" height="7.2"/>
		</g>
		<g>
			<g>
				<line class="st1" x1="1.4" y1="-301.4" x2="101.4" y2="-201.4"/>
				<line class="st1" x1="101.4" y1="-301.4" x2="1.4" y2="-201.4"/>
				<line class="st1" x1="101.4" y1="-271.4" x2="31.4" y2="-201.4"/>
			</g>
		</g>
	</g>
</pattern>
<g>
	<pattern  id="SVGID_1_" xlink:href="#New_Pattern_10" patternTransform="matrix(0.251 0 0 0.251 -5860.6011 -6013.3862)">
	</pattern>
	<path class="st4" d="M100,90c0,5.5-4.5,10-10,10H10c-5.5,0-10-4.5-10-10V10C0,4.5,4.5,0,10,0h80c5.5,0,10,4.5,10,10V90z"/>
</g>
</svg>
